<?xml version="1.0" standalone="no"?>
<!DOCTYPE svg PUBLIC "-//W3C//DTD SVG 20010904//EN"
 "http://www.w3.org/TR/2001/REC-SVG-20010904/DTD/svg10.dtd">
<svg version="1.0" xmlns="http://www.w3.org/2000/svg"
 width="711.000000pt" height="711.000000pt" viewBox="0 0 711.000000 711.000000"
 preserveAspectRatio="xMidYMid meet">
<metadata>
Created by potrace 1.14, written by Peter Selinger 2001-2017
</metadata>
<g transform="translate(0.000000,711.000000) scale(0.100000,-0.100000)"
fill="#000000" stroke="none">
<path d="M1429 6828 c-43 -26 -64 -81 -96 -249 -24 -129 -27 -167 -28 -359 0
-118 4 -248 8 -289 12 -107 59 -284 109 -409 l44 -109 -48 -99 c-104 -217
-140 -385 -141 -650 l-1 -172 -46 -6 c-91 -12 -234 -64 -276 -100 -36 -31 -39
-38 -39 -84 0 -58 19 -85 71 -102 30 -10 48 -7 151 28 187 64 175 65 202 -13
13 -36 21 -68 19 -71 -3 -2 -45 -24 -94 -48 -178 -88 -239 -162 -201 -241 17
-36 64 -65 105 -65 10 0 67 29 126 65 59 36 120 72 136 80 l29 15 79 -103 c43
-57 82 -108 86 -115 4 -6 -3 -30 -14 -52 -72 -140 -134 -382 -151 -584 -16
-185 0 -442 36 -579 13 -51 26 -101 29 -112 5 -16 -8 -29 -65 -65 -273 -173
-402 -541 -323 -921 69 -337 356 -670 781 -908 344 -193 742 -300 1235 -333
551 -36 1187 97 1622 340 233 130 394 251 577 433 l131 129 136 0 c217 0 382
30 453 81 58 41 72 87 77 256 9 297 -42 635 -150 993 -84 281 -220 580 -382
840 -80 128 -210 292 -342 428 -74 77 -134 143 -134 146 0 4 19 35 42 69 24
34 44 64 45 65 3 7 128 -60 175 -93 112 -81 164 -92 217 -47 26 22 34 37 38
74 5 43 3 49 -37 92 -31 33 -74 62 -149 100 -58 29 -121 58 -138 64 l-33 11
20 46 c11 26 20 54 20 62 0 24 91 8 226 -38 154 -52 187 -51 219 11 46 89 -4
158 -151 203 -49 16 -126 34 -171 40 l-81 11 5 131 c10 231 -38 438 -154 671
l-56 113 40 88 c105 227 150 473 140 763 -10 265 -55 473 -119 546 -26 30 -36
34 -78 34 -81 0 -341 -96 -500 -183 -220 -122 -300 -175 -448 -300 l-82 -69
-51 22 c-177 76 -531 140 -772 140 -202 0 -502 -47 -676 -106 l-103 -35 -37
30 c-214 183 -544 366 -829 461 -144 48 -191 54 -233 28z"/>
</g>
</svg>
